<svg width="24" height="24" viewBox="0 0 24 24" fill="none" xmlns="http://www.w3.org/2000/svg">
<path d="M19.5 3.75024H4.5C3.25736 3.75024 2.25 4.7576 2.25 6.00024V19.5002C2.25 20.7429 3.25736 21.7502 4.5 21.7502H19.5C20.7426 21.7502 21.75 20.7429 21.75 19.5002V6.00024C21.75 4.7576 20.7426 3.75024 19.5 3.75024Z" stroke="#333333" stroke-width="1.00189" stroke-linejoin="round"/>
<path d="M13.881 12.0114C14.5053 12.0114 15.0115 11.5053 15.0115 10.881C15.0115 10.2566 14.5053 9.75054 13.881 9.75054C13.2567 9.75054 12.7506 10.2566 12.7506 10.881C12.7506 11.5053 13.2567 12.0114 13.881 12.0114Z" fill="#333333"/>
<path d="M17.6294 12.0114C18.2538 12.0114 18.7599 11.5053 18.7599 10.881C18.7599 10.2566 18.2538 9.75054 17.6294 9.75054C17.0051 9.75054 16.499 10.2566 16.499 10.881C16.499 11.5053 17.0051 12.0114 17.6294 12.0114Z" fill="#333333"/>
<path d="M13.881 15.7611C14.5053 15.7611 15.0115 15.255 15.0115 14.6307C15.0115 14.0064 14.5053 13.5003 13.881 13.5003C13.2567 13.5003 12.7506 14.0064 12.7506 14.6307C12.7506 15.255 13.2567 15.7611 13.881 15.7611Z" fill="#333333"/>
<path d="M17.6294 15.7611C18.2538 15.7611 18.7599 15.255 18.7599 14.6307C18.7599 14.0064 18.2538 13.5003 17.6294 13.5003C17.0051 13.5003 16.499 14.0064 16.499 14.6307C16.499 15.255 17.0051 15.7611 17.6294 15.7611Z" fill="#333333"/>
<path d="M6.38103 15.7611C7.00535 15.7611 7.51145 15.255 7.51145 14.6307C7.51145 14.0064 7.00535 13.5003 6.38103 13.5003C5.75672 13.5003 5.25061 14.0064 5.25061 14.6307C5.25061 15.255 5.75672 15.7611 6.38103 15.7611Z" fill="#333333"/>
<path d="M10.1298 15.7611C10.7541 15.7611 11.2602 15.255 11.2602 14.6307C11.2602 14.0064 10.7541 13.5003 10.1298 13.5003C9.5055 13.5003 8.99939 14.0064 8.99939 14.6307C8.99939 15.255 9.5055 15.7611 10.1298 15.7611Z" fill="#333333"/>
<path d="M6.38103 19.5114C7.00535 19.5114 7.51145 19.0052 7.51145 18.3809C7.51145 17.7566 7.00535 17.2505 6.38103 17.2505C5.75672 17.2505 5.25061 17.7566 5.25061 18.3809C5.25061 19.0052 5.75672 19.5114 6.38103 19.5114Z" fill="#333333"/>
<path d="M10.1298 19.5114C10.7541 19.5114 11.2602 19.0052 11.2602 18.3809C11.2602 17.7566 10.7541 17.2505 10.1298 17.2505C9.5055 17.2505 8.99939 17.7566 8.99939 18.3809C8.99939 19.0052 9.5055 19.5114 10.1298 19.5114Z" fill="#333333"/>
<path d="M13.881 19.5114C14.5053 19.5114 15.0115 19.0052 15.0115 18.3809C15.0115 17.7566 14.5053 17.2505 13.881 17.2505C13.2567 17.2505 12.7506 17.7566 12.7506 18.3809C12.7506 19.0052 13.2567 19.5114 13.881 19.5114Z" fill="#333333"/>
<path d="M5.99988 2.25031V3.7638" stroke="#333333" stroke-width="1.00189" stroke-linecap="round" stroke-linejoin="round"/>
<path d="M18.0005 2.2504V3.76389" stroke="#333333" stroke-width="1.00189" stroke-linecap="round" stroke-linejoin="round"/>
<path d="M21.75 7.50045H2.25" stroke="#333333" stroke-width="1.00189" stroke-linejoin="round"/>
</svg>
