<svg width="28" height="28" viewBox="0 0 28 28" fill="none" xmlns="http://www.w3.org/2000/svg">
<path d="M13.5 25C11.4233 25 9.39323 24.3842 7.66652 23.2304C5.9398 22.0767 4.59399 20.4368 3.79927 18.5182C3.00455 16.5996 2.79661 14.4884 3.20176 12.4516C3.6069 10.4148 4.60693 8.54383 6.07538 7.07538C7.54383 5.60693 9.41476 4.6069 11.4516 4.20176C13.4884 3.79661 15.5996 4.00455 17.5182 4.79927C19.4368 5.59399 21.0767 6.9398 22.2304 8.66652C23.3842 10.3932 24 12.4233 24 14.5C24 17.2848 22.8938 19.9555 20.9246 21.9246C18.9555 23.8938 16.2848 25 13.5 25ZM13.5 5.5C11.72 5.5 9.97992 6.02785 8.49987 7.01678C7.01983 8.00571 5.86628 9.41132 5.18509 11.0559C4.5039 12.7004 4.32567 14.51 4.67294 16.2558C5.0202 18.0016 5.87737 19.6053 7.13604 20.864C8.39472 22.1226 9.99836 22.9798 11.7442 23.3271C13.49 23.6743 15.2996 23.4961 16.9442 22.8149C18.5887 22.1337 19.9943 20.9802 20.9832 19.5001C21.9722 18.0201 22.5 16.28 22.5 14.5C22.5 12.1131 21.5518 9.82387 19.864 8.13604C18.1761 6.44822 15.887 5.5 13.5 5.5V5.5Z" fill="#828282"/>
<path d="M16.9425 19L12.75 14.8075V7.75H14.25V14.185L18 17.9425L16.9425 19Z" fill="#828282"/>
</svg>
