<svg width="14" height="12" viewBox="0 0 14 12" fill="none" xmlns="http://www.w3.org/2000/svg">
<path d="M9.76554 0C8.47569 0 7.37354 0.919385 6.768 1.55323C6.16246 0.919385 5.06277 0 3.77354 0C1.55138 0 0 1.54892 0 3.76615C0 6.20923 1.92677 7.78831 3.79077 9.31569C4.67077 10.0375 5.58154 10.7834 6.28 11.6105C6.39754 11.7489 6.56985 11.8289 6.75077 11.8289H6.78646C6.968 11.8289 7.13969 11.7483 7.25662 11.6105C7.95631 10.7834 8.86646 10.0369 9.74708 9.31569C11.6105 7.78892 13.5385 6.20985 13.5385 3.76615C13.5385 1.54892 11.9871 0 9.76554 0Z" fill="#2F80ED"/>
</svg>
