<svg width="24" height="24" viewBox="0 0 24 24" fill="none" xmlns="http://www.w3.org/2000/svg">
<path d="M18.8458 7.87595C18.7085 9.78263 17.2941 11.2514 15.7517 11.2514C14.2092 11.2514 12.7925 9.7831 12.6575 7.87595C12.5168 5.89239 13.8937 4.50047 15.7517 4.50047C17.6096 4.50047 18.9865 5.92849 18.8458 7.87595Z" stroke="#14B06F" stroke-width="1.00189" stroke-linecap="round" stroke-linejoin="round"/>
<path d="M15.7507 14.251C12.6958 14.251 9.75817 15.7683 9.02223 18.7233C8.92473 19.1143 9.16989 19.501 9.57161 19.501H21.9302C22.3319 19.501 22.5757 19.1143 22.4796 18.7233C21.7436 15.721 18.806 14.251 15.7507 14.251Z" stroke="#14B06F" stroke-width="1.00189" stroke-miterlimit="10"/>
<path d="M9.37723 8.71782C9.2675 10.2409 8.12422 11.4405 6.89184 11.4405C5.65947 11.4405 4.51431 10.2414 4.40646 8.71782C4.29438 7.13327 5.40718 6.00078 6.89184 6.00078C8.37651 6.00078 9.48931 7.16235 9.37723 8.71782Z" stroke="#14B06F" stroke-width="1.00189" stroke-linecap="round" stroke-linejoin="round"/>
<path d="M9.65726 14.344C8.81105 13.9563 7.87904 13.8072 6.89124 13.8072C4.45339 13.8072 2.10462 15.0191 1.51626 17.3796C1.4389 17.6918 1.63487 18.0008 1.95554 18.0008H7.21941" stroke="#14B06F" stroke-width="1.00189" stroke-miterlimit="10" stroke-linecap="round"/>
</svg>
