<svg width="24" height="24" viewBox="0 0 24 24" fill="none" xmlns="http://www.w3.org/2000/svg">
<path d="M3.7489 9.93707V20.9996C3.7489 21.1985 3.82792 21.3893 3.96857 21.5299C4.10922 21.6706 4.29999 21.7496 4.4989 21.7496H8.9989V15.3746C8.9989 15.0762 9.11743 14.7901 9.32841 14.5791C9.53939 14.3681 9.82553 14.2496 10.1239 14.2496H13.8739C14.1723 14.2496 14.4584 14.3681 14.6694 14.5791C14.8804 14.7901 14.9989 15.0762 14.9989 15.3746V21.7496H19.4989C19.6978 21.7496 19.8886 21.6706 20.0292 21.5299C20.1699 21.3893 20.2489 21.1985 20.2489 20.9996V9.93707" stroke="#14B06F" stroke-linecap="round" stroke-linejoin="round"/>
<path d="M22.4998 11.9992L12.5102 2.43667C12.2759 2.18917 11.7279 2.18635 11.4893 2.43667L1.49976 11.9992" stroke="#14B06F" stroke-linecap="round" stroke-linejoin="round"/>
<path d="M18.7504 8.39214V2.99931H16.4995V6.23501" stroke="#14B06F" stroke-linecap="round" stroke-linejoin="round"/>
</svg>
