<svg width="22" height="22" viewBox="0 0 22 22" fill="none" xmlns="http://www.w3.org/2000/svg">
<path d="M2.7489 8.93707V19.9996C2.7489 20.1985 2.82792 20.3893 2.96857 20.5299C3.10922 20.6706 3.29999 20.7496 3.4989 20.7496H7.9989V14.3746C7.9989 14.0762 8.11743 13.7901 8.32841 13.5791C8.53939 13.3681 8.82553 13.2496 9.1239 13.2496H12.8739C13.1723 13.2496 13.4584 13.3681 13.6694 13.5791C13.8804 13.7901 13.9989 14.0762 13.9989 14.3746V20.7496H18.4989C18.6978 20.7496 18.8886 20.6706 19.0292 20.5299C19.1699 20.3893 19.2489 20.1985 19.2489 19.9996V8.93707" stroke="#333333" stroke-linecap="round" stroke-linejoin="round"/>
<path d="M21.4998 10.9992L11.5102 1.43665C11.2759 1.18915 10.7279 1.18634 10.4893 1.43665L0.499756 10.9992" stroke="#333333" stroke-linecap="round" stroke-linejoin="round"/>
<path d="M17.7504 7.39212V1.9993H15.4995V5.23499" stroke="#333333" stroke-linecap="round" stroke-linejoin="round"/>
</svg>
