<svg width="28" height="28" viewBox="0 0 28 28" fill="none" xmlns="http://www.w3.org/2000/svg">
<g clip-path="url(#clip0_1569_6561)">
<path d="M14.0001 7C13.1187 7 12.257 7.26138 11.5241 7.75108C10.7912 8.24079 10.22 8.93683 9.8827 9.75117C9.54539 10.5655 9.45713 11.4616 9.62909 12.3261C9.80105 13.1906 10.2255 13.9847 10.8488 14.608C11.4721 15.2313 12.2662 15.6557 13.1307 15.8277C13.9952 15.9997 14.8913 15.9114 15.7056 15.5741C16.52 15.2368 17.216 14.6656 17.7057 13.9327C18.1954 13.1998 18.4568 12.3381 18.4568 11.4567C18.4568 10.2747 17.9873 9.14111 17.1515 8.30533C16.3157 7.46954 15.1821 7 14.0001 7V7ZM14.0001 14.3578C13.4263 14.3578 12.8654 14.1876 12.3884 13.8689C11.9113 13.5501 11.5394 13.097 11.3198 12.5669C11.1003 12.0368 11.0428 11.4534 11.1548 10.8907C11.2667 10.3279 11.543 9.811 11.9487 9.40527C12.3545 8.99954 12.8714 8.72324 13.4341 8.6113C13.9969 8.49936 14.5802 8.55681 15.1103 8.77639C15.6404 8.99597 16.0935 9.36781 16.4123 9.8449C16.7311 10.322 16.9012 10.8829 16.9012 11.4567C16.8992 12.2247 16.5926 12.9607 16.0488 13.503C15.5049 14.0454 14.7682 14.35 14.0001 14.35V14.3578Z" fill="#828282"/>
<path d="M14.0001 1.55556C11.5775 1.55758 9.2541 2.5182 7.53741 4.22761C5.82071 5.93702 4.85022 8.2563 4.83789 10.6789C4.83789 14.3111 6.87567 17.3522 8.369 19.5689L8.64122 19.9733C10.127 22.1267 11.7209 24.2034 13.4168 26.1956L14.0079 26.8878L14.599 26.1956C16.2947 24.2033 17.8886 22.1265 19.3746 19.9733L19.6468 19.5611C21.1323 17.3444 23.1701 14.3111 23.1701 10.6789C23.1578 8.25495 22.1862 5.9345 20.4678 4.22487C18.7495 2.51524 16.4241 1.55553 14.0001 1.55556V1.55556ZM18.3479 18.6667L18.0679 19.0789C16.7301 21.0856 14.9568 23.3333 14.0001 24.4456C13.0823 23.3333 11.2701 21.0856 9.93234 19.0789L9.66011 18.6667C8.28345 16.6133 6.39345 13.8056 6.39345 10.6478C6.39345 9.64886 6.5902 8.65972 6.97247 7.73683C7.35474 6.81395 7.91504 5.9754 8.62139 5.26905C9.32773 4.56271 10.1663 4.00241 11.0892 3.62014C12.0121 3.23786 13.0012 3.04111 14.0001 3.04111C14.999 3.04111 15.9882 3.23786 16.9111 3.62014C17.8339 4.00241 18.6725 4.56271 19.3788 5.26905C20.0852 5.9754 20.6455 6.81395 21.0278 7.73683C21.41 8.65972 21.6068 9.64886 21.6068 10.6478C21.6068 13.8367 19.7246 16.6444 18.3479 18.6667V18.6667Z" fill="#828282"/>
</g>
<defs>
<clipPath id="clip0_1569_6561">
<rect width="28" height="28" fill="white"/>
</clipPath>
</defs>
</svg>
