<svg width="24" height="24" viewBox="0 0 24 24" fill="none" xmlns="http://www.w3.org/2000/svg">
<path d="M4.10092 17.8114C4.15717 17.6061 4.03389 17.3206 3.91623 17.1148C3.87976 17.0534 3.84001 16.9939 3.79717 16.9367C2.78807 15.4064 2.25023 13.6136 2.25029 11.7805C2.23342 6.51875 6.59654 2.24891 11.9919 2.24891C16.6972 2.24891 20.6253 5.5086 21.5426 9.83563C21.6803 10.4771 21.7499 11.1314 21.7503 11.7875C21.7503 17.0567 17.5555 21.3936 12.1601 21.3936C11.3019 21.3936 10.1445 21.178 9.51311 21.0013C8.8817 20.8245 8.25123 20.5902 8.08857 20.5273C7.92206 20.4634 7.74523 20.4305 7.56686 20.4303C7.37235 20.4296 7.17972 20.4684 7.00061 20.5442L3.82061 21.6917C3.75112 21.7218 3.67746 21.741 3.60217 21.7489C3.54261 21.7487 3.48369 21.7367 3.4288 21.7136C3.3739 21.6905 3.32414 21.6568 3.28238 21.6143C3.24062 21.5719 3.20769 21.5215 3.1855 21.4663C3.16331 21.411 3.1523 21.3519 3.15311 21.2923C3.15702 21.2401 3.16644 21.1884 3.18123 21.1381L4.10092 17.8114Z" stroke="#333333" stroke-width="1.00189" stroke-miterlimit="10" stroke-linecap="round"/>
<path d="M7.5008 13.5019C8.32984 13.5019 9.0019 12.8298 9.0019 12.0008C9.0019 11.1717 8.32984 10.4997 7.5008 10.4997C6.67176 10.4997 5.99969 11.1717 5.99969 12.0008C5.99969 12.8298 6.67176 13.5019 7.5008 13.5019Z" fill="#333333"/>
<path d="M12.0006 13.5019C12.8297 13.5019 13.5017 12.8298 13.5017 12.0008C13.5017 11.1717 12.8297 10.4997 12.0006 10.4997C11.1716 10.4997 10.4995 11.1717 10.4995 12.0008C10.4995 12.8298 11.1716 13.5019 12.0006 13.5019Z" fill="#333333"/>
<path d="M16.5012 13.5019C17.3302 13.5019 18.0023 12.8298 18.0023 12.0008C18.0023 11.1717 17.3302 10.4997 16.5012 10.4997C15.6721 10.4997 15.0001 11.1717 15.0001 12.0008C15.0001 12.8298 15.6721 13.5019 16.5012 13.5019Z" fill="#333333"/>
</svg>
