<svg width="25" height="24" viewBox="0 0 25 24" fill="none" xmlns="http://www.w3.org/2000/svg">
<path d="M20.8825 16.4723C19.6286 14.9991 18.7433 14.2491 18.7433 10.1873C18.7433 6.4678 16.7648 5.14264 15.1364 4.49905C14.9201 4.41373 14.7165 4.2178 14.6506 4.00452C14.3649 3.07123 13.5641 2.24905 12.4997 2.24905C11.4352 2.24905 10.634 3.0717 10.3513 4.00545C10.2853 4.22108 10.0817 4.41373 9.86542 4.49905C8.23505 5.14358 6.25848 6.46405 6.25848 10.1873C6.25604 14.2491 5.37079 14.9991 4.11688 16.4723C3.59735 17.0826 4.05243 17.9991 4.96112 17.9991H20.0432C20.947 17.9991 21.3991 17.0798 20.8825 16.4723Z" stroke="#14B06F" stroke-width="1.00189" stroke-linecap="round" stroke-linejoin="round"/>
<path d="M15.6254 17.999V18.7491C15.6254 19.5449 15.2961 20.3081 14.71 20.8708C14.1238 21.4335 13.3289 21.7496 12.5 21.7496C11.671 21.7496 10.8761 21.4335 10.2899 20.8708C9.7038 20.3081 9.37451 19.5449 9.37451 18.7491V17.999" stroke="#14B06F" stroke-width="1.00189" stroke-linecap="round" stroke-linejoin="round"/>
</svg>
