<svg width="24" height="24" viewBox="0 0 24 24" fill="none" xmlns="http://www.w3.org/2000/svg">
<path d="M1.50012 1.50034V21.7503C1.50012 21.9493 1.57914 22.14 1.71979 22.2807C1.86044 22.4213 2.05121 22.5003 2.25012 22.5003H22.5001" stroke="#333333" stroke-width="1.00189" stroke-linecap="round" stroke-linejoin="round"/>
<path d="M7.31327 10.4995H5.438C4.92016 10.4995 4.50037 10.9193 4.50037 11.4371V18.5632C4.50037 19.081 4.92016 19.5008 5.438 19.5008H7.31327C7.83111 19.5008 8.2509 19.081 8.2509 18.5632V11.4371C8.2509 10.9193 7.83111 10.4995 7.31327 10.4995Z" stroke="#333333" stroke-width="1.00189" stroke-linecap="round" stroke-linejoin="round"/>
<path d="M14.0637 8.25052H12.1887C11.6709 8.25052 11.2512 8.67025 11.2512 9.18802V18.563C11.2512 19.0808 11.6709 19.5005 12.1887 19.5005H14.0637C14.5814 19.5005 15.0012 19.0808 15.0012 18.563V9.18802C15.0012 8.67025 14.5814 8.25052 14.0637 8.25052Z" stroke="#333333" stroke-width="1.00189" stroke-linecap="round" stroke-linejoin="round"/>
<path d="M20.7958 5.24991H18.9208C18.4031 5.24991 17.9833 5.66965 17.9833 6.18741V18.5624C17.9833 19.0802 18.4031 19.4999 18.9208 19.4999H20.7958C21.3136 19.4999 21.7333 19.0802 21.7333 18.5624V6.18741C21.7333 5.66965 21.3136 5.24991 20.7958 5.24991Z" stroke="#333333" stroke-width="1.00189" stroke-linecap="round" stroke-linejoin="round"/>
</svg>
