<svg width="24" height="24" viewBox="0 0 24 24" fill="none" xmlns="http://www.w3.org/2000/svg">
<path d="M20.6274 14.3592L20.6277 14.3598C20.8503 14.747 21.1266 15.0983 21.447 15.404C21.7353 15.6789 21.7884 16.0393 21.6604 16.261L20.5007 18.2698C20.3731 18.4909 20.0369 18.6245 19.658 18.5137C18.8401 18.2743 17.9652 18.26 17.1282 18.4832C15.9276 18.8033 14.9028 19.586 14.2779 20.6599L14.2775 20.6607C14.0543 21.0458 13.8886 21.4593 13.7841 21.888C13.6898 22.2743 13.4047 22.5 13.149 22.5H10.8255C10.5705 22.5 10.2868 22.276 10.1931 21.8928C9.99087 21.0657 9.56568 20.3019 8.95409 19.6895C8.07692 18.8112 6.88769 18.3158 5.64637 18.3118H5.64473C5.18914 18.3118 4.74834 18.3771 4.33105 18.4995C3.94906 18.6116 3.61094 18.4776 3.48305 18.256L2.32296 16.2465C2.19535 16.0255 2.24771 15.6676 2.53316 15.3949C3.14929 14.8062 3.59908 14.0557 3.82427 13.2193C4.14726 12.0196 3.98188 10.7409 3.36433 9.66284L3.36416 9.66253C3.14032 9.27243 2.86182 8.91885 2.53868 8.61175C2.24884 8.33631 2.19507 7.97471 2.32336 7.75249L3.48172 5.74599C3.60914 5.52527 3.94449 5.39209 4.322 5.50354C6.3562 6.10407 8.61063 5.27333 9.7144 3.361C9.94076 2.97061 10.1079 2.55107 10.2122 2.11609C10.3054 1.72748 10.5916 1.5 10.8483 1.5H13.1609C13.4169 1.5 13.7016 1.7257 13.7942 2.11096C13.8502 2.34438 13.9243 2.57369 14.0158 2.79681C14.25 3.36739 14.5942 3.88626 15.0289 4.3238C15.4636 4.76134 15.9802 5.10898 16.5492 5.34687C17.1183 5.58475 17.7286 5.70823 18.3453 5.71025L18.3464 5.71025C18.7964 5.71079 19.242 5.64601 19.6697 5.51956C20.0521 5.40655 20.3914 5.54062 20.5196 5.76267L21.6771 7.76767C21.8049 7.98909 21.752 8.34791 21.4654 8.62067C20.8473 9.20881 20.3957 9.9595 20.1691 10.7967C19.8439 11.998 20.0088 13.2793 20.6274 14.3592Z" stroke="#14B06F"/>
<circle cx="12" cy="12" r="3.5" stroke="#14B06F"/>
</svg>
